<svg width="250" height="250" viewBox="0 0 250 250" fill="none" xmlns="http://www.w3.org/2000/svg">
<circle cx="125" cy="125" r="125" fill="#007CED"/>
<path d="M74.0205 147.506C70.5049 133.004 67.4043 120.87 64.7188 111.104C62.0332 101.29 59.8848 95.1865 58.2734 92.7939L50.9492 92.2812C49.5332 88.5703 48.5322 84.0049 47.9463 78.585C48.7764 75.8994 50.3389 73.5801 52.6338 71.627C54.9287 69.625 57.6143 68.1113 60.6904 67.0859C63.7666 66.0605 66.8672 65.5479 69.9922 65.5479C77.1211 65.5479 82.4434 68.8193 85.959 75.3623C87.5703 78.3408 88.9375 81.9297 90.0605 86.1289C91.1836 90.2793 92.2334 95.2109 93.21 100.924C94.8213 110.543 95.9443 119.186 96.5791 126.852C97.2139 134.469 97.7266 142.574 98.1172 151.168L98.4102 157.76H99.5088C100.729 155.074 102.072 149.288 103.537 140.401C105.002 131.515 106.271 122.115 107.346 112.203C108.42 102.242 109.006 94.8447 109.104 90.0107L99.875 88.6191C99.1914 86.0312 98.752 83.7119 98.5566 81.6611C98.3613 79.6104 98.2637 77.1201 98.2637 74.1904C99.2891 72.9209 100.998 71.6025 103.391 70.2354C105.783 68.8682 108.566 67.7207 111.74 66.793C114.914 65.8652 118.063 65.4014 121.188 65.4014C125.388 65.4014 129.172 66.1094 132.541 67.5254C135.959 68.8926 138.669 70.9434 140.671 73.6777C142.722 76.4121 143.771 79.7568 143.82 83.7119V94.9912C146.018 103.536 147.922 113.57 149.533 125.094C151.193 136.568 152.414 147.433 153.195 157.687H154.001C155.173 154.952 156.491 149.142 157.956 140.255C159.47 131.319 160.788 121.92 161.911 112.057C163.034 102.145 163.62 94.7959 163.669 90.0107L155.026 88.6191C154.343 86.0312 153.903 83.7119 153.708 81.6611C153.513 79.6104 153.415 77.1201 153.415 74.1904C154.392 72.9209 156.101 71.6025 158.542 70.2354C160.983 68.8682 163.791 67.7207 166.965 66.793C170.188 65.8652 173.361 65.4014 176.486 65.4014C182.883 65.4014 187.668 67.0615 190.842 70.3818C194.016 73.7021 195.603 78.7559 195.603 85.543C195.603 91.9883 194.528 100.289 192.38 110.445C190.231 120.602 187.546 130.147 184.323 139.083C181.54 146.896 178.806 153.658 176.12 159.371C173.435 165.035 170.114 170.602 166.159 176.07C164.548 177.73 162.424 178.878 159.787 179.513C157.199 180.147 154.514 180.465 151.73 180.465C142.111 180.465 135.007 178.609 130.417 174.898L132.395 159.884L127.634 135.201C126.511 128.707 125.778 123.531 125.437 119.674L124.484 119.601L124.265 128.902C122.653 138.473 120.676 147.359 118.332 155.562C116.037 163.717 113.4 170.553 110.422 176.07C109.006 177.682 107.053 178.805 104.562 179.439C102.072 180.123 99.5332 180.465 96.9453 180.465C86.9355 180.465 79.8799 178.634 75.7783 174.972L77.3896 161.202L74.0205 147.506Z" fill="white"/>
</svg>
