<svg width="660" height="250" viewBox="0 0 660 250" fill="none" xmlns="http://www.w3.org/2000/svg">
<circle cx="125" cy="125" r="125" fill="#007CED"/>
<path d="M74.0205 147.506C70.5049 133.004 67.4043 120.87 64.7188 111.104C62.0332 101.29 59.8848 95.1865 58.2734 92.7939L50.9492 92.2812C49.5332 88.5703 48.5322 84.0049 47.9463 78.585C48.7764 75.8994 50.3389 73.5801 52.6338 71.627C54.9287 69.625 57.6143 68.1113 60.6904 67.0859C63.7666 66.0605 66.8672 65.5479 69.9922 65.5479C77.1211 65.5479 82.4434 68.8193 85.959 75.3623C87.5703 78.3408 88.9375 81.9297 90.0605 86.1289C91.1836 90.2793 92.2334 95.2109 93.21 100.924C94.8213 110.543 95.9443 119.186 96.5791 126.852C97.2139 134.469 97.7266 142.574 98.1172 151.168L98.4102 157.76H99.5088C100.729 155.074 102.072 149.288 103.537 140.401C105.002 131.515 106.271 122.115 107.346 112.203C108.42 102.242 109.006 94.8447 109.104 90.0107L99.875 88.6191C99.1914 86.0312 98.752 83.7119 98.5566 81.6611C98.3613 79.6104 98.2637 77.1201 98.2637 74.1904C99.2891 72.9209 100.998 71.6025 103.391 70.2354C105.783 68.8682 108.566 67.7207 111.74 66.793C114.914 65.8652 118.063 65.4014 121.188 65.4014C125.388 65.4014 129.172 66.1094 132.541 67.5254C135.959 68.8926 138.669 70.9434 140.671 73.6777C142.722 76.4121 143.771 79.7568 143.82 83.7119V94.9912C146.018 103.536 147.922 113.57 149.533 125.094C151.193 136.568 152.414 147.433 153.195 157.687H154.001C155.173 154.952 156.491 149.142 157.956 140.255C159.47 131.319 160.788 121.92 161.911 112.057C163.034 102.145 163.62 94.7959 163.669 90.0107L155.026 88.6191C154.343 86.0312 153.903 83.7119 153.708 81.6611C153.513 79.6104 153.415 77.1201 153.415 74.1904C154.392 72.9209 156.101 71.6025 158.542 70.2354C160.983 68.8682 163.791 67.7207 166.965 66.793C170.188 65.8652 173.361 65.4014 176.486 65.4014C182.883 65.4014 187.668 67.0615 190.842 70.3818C194.016 73.7021 195.603 78.7559 195.603 85.543C195.603 91.9883 194.528 100.289 192.38 110.445C190.231 120.602 187.546 130.147 184.323 139.083C181.54 146.896 178.806 153.658 176.12 159.371C173.435 165.035 170.114 170.602 166.159 176.07C164.548 177.73 162.424 178.878 159.787 179.513C157.199 180.147 154.514 180.465 151.73 180.465C142.111 180.465 135.007 178.609 130.417 174.898L132.395 159.884L127.634 135.201C126.511 128.707 125.778 123.531 125.437 119.674L124.484 119.601L124.265 128.902C122.653 138.473 120.676 147.359 118.332 155.562C116.037 163.717 113.4 170.553 110.422 176.07C109.006 177.682 107.053 178.805 104.562 179.439C102.072 180.123 99.5332 180.465 96.9453 180.465C86.9355 180.465 79.8799 178.634 75.7783 174.972L77.3896 161.202L74.0205 147.506Z" fill="white"/>
<path d="M361.055 142.922C364.609 145.975 366.683 150.031 367.275 155.09C367.275 155.363 366.182 156.662 363.994 158.986C361.852 161.311 359.049 163.452 355.586 165.412C352.122 167.417 348.226 168.42 343.896 168.42C341.937 168.42 340.114 168.192 338.428 167.736C337.881 167.645 337.402 167.531 336.992 167.395C336.582 167.303 336.24 167.212 335.967 167.121C328.949 164.934 324.368 155.614 322.227 139.162C320.677 139.299 319.014 139.367 317.236 139.367C301.787 139.367 290.804 134.628 284.287 125.148C277.816 115.669 274.58 102.727 274.58 86.3203C274.58 50.1354 288.799 32.043 317.236 32.043C328.493 32.043 337.266 34.39 343.555 39.084C349.889 43.7324 354.242 50.0215 356.611 57.9512C359.027 65.8353 360.234 75.2917 360.234 86.3203C360.234 109.289 354.082 124.829 341.777 132.941C343.783 137.544 346.517 142.284 349.98 147.16L350.801 147.023L350.938 147.16L361.055 142.922ZM307.461 115.441C308.099 116.125 309.717 116.649 312.314 117.014C314.912 117.378 317.692 117.561 320.654 117.561C324.391 117.561 326.533 117.355 327.08 116.945C328.219 114.94 329.085 111.454 329.678 106.486C330.27 101.473 330.566 95.8678 330.566 89.6699C330.566 83.153 330.247 77.1146 329.609 71.5547C329.017 65.9492 328.174 62.0299 327.08 59.7969C325.941 58.8854 324.255 58.2018 322.021 57.7461C319.788 57.2904 317.327 57.0397 314.639 56.9941C313.089 56.9941 311.676 57.0853 310.4 57.2676C309.17 57.4043 308.281 57.6322 307.734 57.9512C306.413 60.2298 305.433 63.5339 304.795 67.8633C304.202 72.1471 303.906 77.0462 303.906 82.5605C303.906 88.804 304.248 95.0247 304.932 101.223C305.615 107.421 306.458 112.16 307.461 115.441ZM368.848 79.0742C368.073 75.7474 367.572 73.3092 367.344 71.7598C367.116 70.2103 367.002 67.8633 367.002 64.7188C369.691 62.1667 372.585 60.2526 375.684 58.9766C378.783 57.6549 382.269 56.9941 386.143 56.9941C397.9 56.9941 403.779 62.8958 403.779 74.6992C403.779 77.8438 403.483 81.4896 402.891 85.6367C402.344 89.7839 401.546 95.002 400.498 101.291C400.361 102.111 399.997 104.322 399.404 107.922C398.812 111.522 398.402 114.53 398.174 116.945C398.949 117.766 399.906 118.335 401.045 118.654C401.592 118.654 402.845 117.538 404.805 115.305C406.81 113.026 408.952 110.269 411.23 107.033C413.509 103.798 415.378 100.812 416.836 98.0781C417.201 91.5612 417.702 85.5684 418.34 80.0996L411.162 78.6641C410.57 76.3854 410.16 74.3802 409.932 72.6484C409.704 70.9167 409.59 69.071 409.59 67.1113L409.658 65.1973C411.299 63.1009 413.76 61.2096 417.041 59.5234C420.322 57.8372 424.082 56.9941 428.32 56.9941C440.078 56.9941 445.957 62.8958 445.957 74.6992C445.957 79.4844 445.16 85.7962 443.564 93.6348C441.969 101.428 440.101 109.312 437.959 117.287L445.82 113.869C447.142 115.282 448.304 117.014 449.307 119.064C450.355 121.07 451.016 123.394 451.289 126.037C450.651 127.404 449.261 129.159 447.119 131.301C444.977 133.397 442.357 135.266 439.258 136.906C436.159 138.547 432.923 139.367 429.551 139.367C425.768 139.367 422.852 138.251 420.801 136.018C418.796 133.739 417.793 130.845 417.793 127.336C417.793 126.424 418.021 124.556 418.477 121.73C418.978 118.905 419.388 116.945 419.707 115.852L417.793 115.236C415.514 123.212 412.37 129.227 408.359 133.283C404.395 137.339 399.86 139.367 394.756 139.367C387.419 139.367 382.246 136.952 379.238 132.121C376.23 127.245 374.727 121.206 374.727 114.006C374.727 100.471 375.182 89.1686 376.094 80.0996L368.848 79.0742ZM459.902 96.6426C459.902 79.7806 460.335 64.2174 461.201 49.9531L453.477 48.5859C452.383 44.3932 451.836 39.8815 451.836 35.0508C452.52 34.1849 453.796 33.1139 455.664 31.8379C457.533 30.5618 459.697 29.4453 462.158 28.4883C464.665 27.5312 467.148 27.0527 469.609 27.0527C475.215 27.0527 479.385 28.4883 482.119 31.3594C484.854 34.2305 486.221 38.6283 486.221 44.5527C486.221 48.0618 485.902 53.485 485.264 60.8223C484.671 68.1139 483.805 75.1549 482.666 81.9453L480.752 93.5664L482.939 94.3184L485.264 85.2949C487.451 76.8639 490.755 70.0508 495.176 64.8555C499.642 59.6146 505.225 56.9941 511.924 56.9941C516.937 56.9941 521.016 58.0879 524.16 60.2754C527.35 62.4173 529.652 65.2656 531.064 68.8203C532.477 72.3294 533.184 76.2031 533.184 80.4414C533.184 86.1836 532.637 92.6322 531.543 99.7871C530.449 106.896 528.991 113.55 527.168 119.748C525.391 125.809 522.428 130.594 518.281 134.104C514.18 137.613 509.053 139.367 502.9 139.367C500.485 139.367 497.386 138.911 493.604 138C489.821 137.089 485.628 135.607 481.025 133.557C480.342 134.696 479.567 135.812 478.701 136.906C477.881 138 477.152 138.82 476.514 139.367C473.141 139.367 470.316 139.094 468.037 138.547C465.758 138 464.049 137.43 462.91 136.838C461.771 136.2 461.201 135.812 461.201 135.676C460.335 126.288 459.902 113.277 459.902 96.6426ZM501.602 121.32C502.148 121.32 502.49 121.275 502.627 121.184C504.268 115.031 505.088 105.712 505.088 93.2246C505.088 91.0827 504.974 89.3509 504.746 88.0293C503.698 86.7077 502.194 86.0469 500.234 86.0469C499.596 86.5938 497.409 90.194 493.672 96.8477C489.935 103.456 487.178 108.537 485.4 112.092V115.373C487.907 117.105 490.801 118.54 494.082 119.68C497.363 120.773 499.87 121.32 501.602 121.32ZM544.463 39.9043C544.463 35.8939 545.762 32.6354 548.359 30.1289C551.003 27.6224 555.195 26.3691 560.938 26.3691C566.68 26.3691 570.85 27.6224 573.447 30.1289C576.09 32.6354 577.412 35.8939 577.412 39.9043C577.412 42.1829 576.615 44.2793 575.02 46.1934C573.47 48.1074 571.419 49.6341 568.867 50.7734C566.315 51.8672 563.672 52.4141 560.938 52.4141C557.975 52.4141 555.218 51.776 552.666 50.5C550.16 49.1784 548.154 47.5378 546.65 45.5781C545.192 43.6185 544.463 41.7272 544.463 39.9043ZM541.113 79.0059C540.521 76.7728 540.111 74.7448 539.883 72.9219C539.655 71.0534 539.541 69.1165 539.541 67.1113L539.609 65.1973C540.566 63.9668 542.048 62.7363 544.053 61.5059C546.104 60.2298 548.473 59.1589 551.162 58.293C553.896 57.4271 556.722 56.9941 559.639 56.9941C566.019 56.9941 570.553 58.4297 573.242 61.3008C575.931 64.1719 577.275 68.638 577.275 74.6992C577.275 78.3451 576.751 83.1074 575.703 88.9863C574.701 94.8652 573.47 100.585 572.012 106.145C570.599 111.659 569.368 115.601 568.32 117.971L568.457 118.107L578.574 114.416C580.397 115.965 581.764 117.674 582.676 119.543C583.633 121.411 584.248 123.576 584.521 126.037C584.521 126.356 583.519 127.678 581.514 130.002C579.508 132.281 576.842 134.423 573.516 136.428C570.234 138.387 566.429 139.367 562.1 139.367C557.725 139.367 554.17 138.182 551.436 135.812C548.747 133.443 547.402 129.387 547.402 123.645C547.402 116.945 547.585 109.836 547.949 102.316C548.314 94.7969 548.883 87.5052 549.658 80.4414L541.113 79.0059ZM589.854 98.2832C589.854 90.3991 591.175 83.3581 593.818 77.1602C596.462 70.9622 600.54 66.0632 606.055 62.4629C611.615 58.8171 618.542 56.9941 626.836 56.9941C629.661 56.9941 632.897 57.1764 636.543 57.541C640.234 57.86 643.766 58.3613 647.139 59.0449L648.506 60.002C650.557 61.4147 652.061 62.554 653.018 63.4199C654.02 64.2402 655.068 65.4023 656.162 66.9062C656.162 69.3672 655.82 72.7624 655.137 77.0918C654.499 81.3757 653.678 85.3633 652.676 89.0547C651.673 92.7461 650.716 95.1159 649.805 96.1641C648.301 96.9388 645.863 97.3262 642.49 97.3262C640.85 97.3262 639.3 97.2122 637.842 96.9844C636.429 96.7109 635.358 96.3691 634.629 95.959L633.193 83.3125C632.51 82.5378 630.938 81.9225 628.477 81.4668C626.061 80.9655 623.828 80.7148 621.777 80.7148C621.139 80.7148 620.547 80.7604 620 80.8516C618.952 82.9935 618.154 85.7279 617.607 89.0547C617.061 92.3815 616.787 95.7767 616.787 99.2402C616.787 104.253 617.607 108.514 619.248 112.023C620.889 115.487 624.238 117.219 629.297 117.219C631.803 117.219 634.264 116.809 636.68 115.988C639.141 115.168 642.24 113.915 645.977 112.229C647.526 111.499 648.688 110.975 649.463 110.656C651.286 112.479 652.721 114.393 653.77 116.398C654.818 118.404 655.501 120.979 655.82 124.123C652.904 127.541 648.802 130.936 643.516 134.309C638.275 137.681 632.145 139.367 625.127 139.367C617.653 139.367 611.25 137.567 605.918 133.967C600.632 130.321 596.621 125.399 593.887 119.201C591.198 112.958 589.854 105.985 589.854 98.2832Z" fill="white"/>
<path d="M279.945 219H274.94C274.55 216.357 274.203 213.453 273.9 210.29C273.64 207.083 273.38 203.747 273.12 200.28C272.903 196.813 272.708 193.26 272.535 189.62C272.362 185.98 272.21 182.362 272.08 178.765H277.28L277.995 212.37L283.845 194.04H288.525L294.505 212.37L295.22 178.765H300.42C300.29 182.405 300.117 186.045 299.9 189.685C299.727 193.325 299.51 196.878 299.25 200.345C298.99 203.768 298.708 207.062 298.405 210.225C298.102 213.388 297.777 216.313 297.43 219H292.49L286.185 198.98L279.945 219ZM319.335 188.125C323.408 188.125 326.55 189.403 328.76 191.96C330.97 194.473 332.075 198.308 332.075 203.465V205.35H310.495C310.712 208.47 311.73 210.853 313.55 212.5C315.413 214.103 318.013 214.905 321.35 214.905C323.257 214.905 324.882 214.753 326.225 214.45C327.568 214.147 328.587 213.822 329.28 213.475L329.995 218.025C329.345 218.372 328.175 218.74 326.485 219.13C324.795 219.52 322.888 219.715 320.765 219.715C318.165 219.715 315.868 219.325 313.875 218.545C311.925 217.722 310.3 216.617 309 215.23C307.7 213.843 306.725 212.197 306.075 210.29C305.425 208.34 305.1 206.238 305.1 203.985C305.1 201.298 305.512 198.958 306.335 196.965C307.158 194.972 308.242 193.325 309.585 192.025C310.928 190.725 312.445 189.75 314.135 189.1C315.825 188.45 317.558 188.125 319.335 188.125ZM326.615 200.995C326.615 198.438 325.943 196.423 324.6 194.95C323.257 193.433 321.48 192.675 319.27 192.675C318.013 192.675 316.865 192.913 315.825 193.39C314.828 193.867 313.962 194.495 313.225 195.275C312.488 196.055 311.903 196.943 311.47 197.94C311.037 198.937 310.755 199.955 310.625 200.995H326.615ZM345.01 189.945C345.66 189.555 346.592 189.165 347.805 188.775C349.062 188.342 350.448 188.125 351.965 188.125C354.002 188.125 355.822 188.515 357.425 189.295C359.028 190.075 360.372 191.158 361.455 192.545C362.582 193.932 363.427 195.6 363.99 197.55C364.597 199.457 364.9 201.58 364.9 203.92C364.9 206.347 364.553 208.535 363.86 210.485C363.167 212.435 362.192 214.103 360.935 215.49C359.678 216.833 358.162 217.873 356.385 218.61C354.608 219.347 352.637 219.715 350.47 219.715C348.087 219.715 345.963 219.542 344.1 219.195C342.237 218.848 340.742 218.502 339.615 218.155V174.865L345.01 173.955V189.945ZM345.01 214.32C345.833 214.537 346.657 214.71 347.48 214.84C348.303 214.927 349.083 214.97 349.82 214.97C352.81 214.97 355.15 214.06 356.84 212.24C358.53 210.377 359.375 207.603 359.375 203.92C359.375 202.36 359.223 200.908 358.92 199.565C358.617 198.178 358.14 197.008 357.49 196.055C356.84 195.058 355.995 194.278 354.955 193.715C353.958 193.152 352.745 192.87 351.315 192.87C350.058 192.87 348.845 193.13 347.675 193.65C346.505 194.127 345.617 194.647 345.01 195.21V214.32ZM397.4 198.85C397.4 202.577 396.923 205.74 395.97 208.34C395.06 210.94 393.782 213.063 392.135 214.71C390.532 216.313 388.603 217.483 386.35 218.22C384.14 218.957 381.735 219.325 379.135 219.325C376.448 219.325 373.74 219 371.01 218.35V179.35C373.74 178.7 376.448 178.375 379.135 178.375C381.735 178.375 384.14 178.743 386.35 179.48C388.603 180.217 390.532 181.408 392.135 183.055C393.782 184.702 395.06 186.825 395.97 189.425C396.923 192.025 397.4 195.167 397.4 198.85ZM376.34 214.515C377.423 214.645 378.528 214.71 379.655 214.71C381.605 214.71 383.338 214.428 384.855 213.865C386.372 213.258 387.65 212.327 388.69 211.07C389.73 209.77 390.532 208.123 391.095 206.13C391.658 204.093 391.94 201.667 391.94 198.85C391.94 193.39 390.878 189.382 388.755 186.825C386.675 184.268 383.577 182.99 379.46 182.99C378.897 182.99 378.333 183.012 377.77 183.055C377.25 183.055 376.773 183.098 376.34 183.185V214.515ZM416.835 188.125C420.908 188.125 424.05 189.403 426.26 191.96C428.47 194.473 429.575 198.308 429.575 203.465V205.35H407.995C408.212 208.47 409.23 210.853 411.05 212.5C412.913 214.103 415.513 214.905 418.85 214.905C420.757 214.905 422.382 214.753 423.725 214.45C425.068 214.147 426.087 213.822 426.78 213.475L427.495 218.025C426.845 218.372 425.675 218.74 423.985 219.13C422.295 219.52 420.388 219.715 418.265 219.715C415.665 219.715 413.368 219.325 411.375 218.545C409.425 217.722 407.8 216.617 406.5 215.23C405.2 213.843 404.225 212.197 403.575 210.29C402.925 208.34 402.6 206.238 402.6 203.985C402.6 201.298 403.012 198.958 403.835 196.965C404.658 194.972 405.742 193.325 407.085 192.025C408.428 190.725 409.945 189.75 411.635 189.1C413.325 188.45 415.058 188.125 416.835 188.125ZM424.115 200.995C424.115 198.438 423.443 196.423 422.1 194.95C420.757 193.433 418.98 192.675 416.77 192.675C415.513 192.675 414.365 192.913 413.325 193.39C412.328 193.867 411.462 194.495 410.725 195.275C409.988 196.055 409.403 196.943 408.97 197.94C408.537 198.937 408.255 199.955 408.125 200.995H424.115ZM463.05 188.84C462.27 191.657 461.382 194.43 460.385 197.16C459.388 199.847 458.37 202.49 457.33 205.09C456.29 207.647 455.228 210.095 454.145 212.435C453.062 214.775 452.022 216.963 451.025 219H446.15C444.113 214.927 442.055 210.29 439.975 205.09C437.895 199.89 436.053 194.473 434.45 188.84H440.3C440.82 190.747 441.405 192.762 442.055 194.885C442.748 197.008 443.463 199.132 444.2 201.255C444.937 203.378 445.673 205.437 446.41 207.43C447.19 209.38 447.948 211.135 448.685 212.695C449.422 211.135 450.18 209.38 450.96 207.43C451.783 205.437 452.585 203.378 453.365 201.255C454.145 199.132 454.882 197.008 455.575 194.885C456.312 192.762 456.94 190.747 457.46 188.84H463.05ZM481.835 188.125C485.908 188.125 489.05 189.403 491.26 191.96C493.47 194.473 494.575 198.308 494.575 203.465V205.35H472.995C473.212 208.47 474.23 210.853 476.05 212.5C477.913 214.103 480.513 214.905 483.85 214.905C485.757 214.905 487.382 214.753 488.725 214.45C490.068 214.147 491.087 213.822 491.78 213.475L492.495 218.025C491.845 218.372 490.675 218.74 488.985 219.13C487.295 219.52 485.388 219.715 483.265 219.715C480.665 219.715 478.368 219.325 476.375 218.545C474.425 217.722 472.8 216.617 471.5 215.23C470.2 213.843 469.225 212.197 468.575 210.29C467.925 208.34 467.6 206.238 467.6 203.985C467.6 201.298 468.012 198.958 468.835 196.965C469.658 194.972 470.742 193.325 472.085 192.025C473.428 190.725 474.945 189.75 476.635 189.1C478.325 188.45 480.058 188.125 481.835 188.125ZM489.115 200.995C489.115 198.438 488.443 196.423 487.1 194.95C485.757 193.433 483.98 192.675 481.77 192.675C480.513 192.675 479.365 192.913 478.325 193.39C477.328 193.867 476.462 194.495 475.725 195.275C474.988 196.055 474.403 196.943 473.97 197.94C473.537 198.937 473.255 199.955 473.125 200.995H489.115ZM519.47 219.715C517.563 219.715 515.982 219.455 514.725 218.935C513.468 218.415 512.472 217.635 511.735 216.595C510.998 215.555 510.478 214.277 510.175 212.76C509.872 211.2 509.72 209.402 509.72 207.365V178.83H501.01V174.28H515.05V207.365C515.05 208.882 515.137 210.117 515.31 211.07C515.527 212.023 515.83 212.803 516.22 213.41C516.653 213.973 517.173 214.363 517.78 214.58C518.387 214.797 519.102 214.905 519.925 214.905C521.182 214.905 522.352 214.753 523.435 214.45C524.518 214.147 525.363 213.822 525.97 213.475L526.75 218.025C526.49 218.155 526.122 218.328 525.645 218.545C525.168 218.718 524.605 218.892 523.955 219.065C523.305 219.238 522.59 219.39 521.81 219.52C521.073 219.65 520.293 219.715 519.47 219.715ZM559.9 203.92C559.9 206.303 559.553 208.47 558.86 210.42C558.21 212.327 557.278 213.973 556.065 215.36C554.852 216.747 553.4 217.83 551.71 218.61C550.02 219.347 548.178 219.715 546.185 219.715C544.235 219.715 542.415 219.347 540.725 218.61C539.078 217.83 537.648 216.747 536.435 215.36C535.222 213.973 534.268 212.327 533.575 210.42C532.925 208.47 532.6 206.303 532.6 203.92C532.6 201.537 532.925 199.37 533.575 197.42C534.268 195.47 535.222 193.823 536.435 192.48C537.648 191.093 539.078 190.032 540.725 189.295C542.415 188.515 544.235 188.125 546.185 188.125C548.178 188.125 550.02 188.515 551.71 189.295C553.4 190.032 554.852 191.093 556.065 192.48C557.278 193.823 558.21 195.47 558.86 197.42C559.553 199.37 559.9 201.537 559.9 203.92ZM554.375 203.92C554.375 200.497 553.638 197.81 552.165 195.86C550.692 193.867 548.698 192.87 546.185 192.87C543.715 192.87 541.743 193.867 540.27 195.86C538.84 197.81 538.125 200.497 538.125 203.92C538.125 207.3 538.84 209.987 540.27 211.98C541.743 213.93 543.715 214.905 546.185 214.905C548.698 214.905 550.692 213.93 552.165 211.98C553.638 209.987 554.375 207.3 554.375 203.92ZM586.875 203.985C586.875 200.475 586.052 197.767 584.405 195.86C582.758 193.91 580.613 192.935 577.97 192.935C576.497 192.935 575.327 193 574.46 193.13C573.637 193.26 572.987 193.412 572.51 193.585V212.63C573.117 213.193 574.005 213.713 575.175 214.19C576.345 214.667 577.558 214.905 578.815 214.905C580.245 214.905 581.458 214.623 582.455 214.06C583.495 213.497 584.34 212.738 584.99 211.785C585.64 210.788 586.117 209.64 586.42 208.34C586.723 206.997 586.875 205.545 586.875 203.985ZM592.4 203.985C592.4 206.282 592.097 208.405 591.49 210.355C590.927 212.262 590.082 213.908 588.955 215.295C587.872 216.682 586.528 217.765 584.925 218.545C583.322 219.325 581.502 219.715 579.465 219.715C577.862 219.715 576.453 219.52 575.24 219.13C574.027 218.74 573.117 218.307 572.51 217.83V229.725H567.115V189.75C568.285 189.403 569.78 189.057 571.6 188.71C573.463 188.363 575.587 188.19 577.97 188.19C580.137 188.19 582.108 188.558 583.885 189.295C585.662 190.032 587.178 191.093 588.435 192.48C589.692 193.823 590.667 195.47 591.36 197.42C592.053 199.37 592.4 201.558 592.4 203.985ZM611.835 188.125C615.908 188.125 619.05 189.403 621.26 191.96C623.47 194.473 624.575 198.308 624.575 203.465V205.35H602.995C603.212 208.47 604.23 210.853 606.05 212.5C607.913 214.103 610.513 214.905 613.85 214.905C615.757 214.905 617.382 214.753 618.725 214.45C620.068 214.147 621.087 213.822 621.78 213.475L622.495 218.025C621.845 218.372 620.675 218.74 618.985 219.13C617.295 219.52 615.388 219.715 613.265 219.715C610.665 219.715 608.368 219.325 606.375 218.545C604.425 217.722 602.8 216.617 601.5 215.23C600.2 213.843 599.225 212.197 598.575 210.29C597.925 208.34 597.6 206.238 597.6 203.985C597.6 201.298 598.012 198.958 598.835 196.965C599.658 194.972 600.742 193.325 602.085 192.025C603.428 190.725 604.945 189.75 606.635 189.1C608.325 188.45 610.058 188.125 611.835 188.125ZM619.115 200.995C619.115 198.438 618.443 196.423 617.1 194.95C615.757 193.433 613.98 192.675 611.77 192.675C610.513 192.675 609.365 192.913 608.325 193.39C607.328 193.867 606.462 194.495 605.725 195.275C604.988 196.055 604.403 196.943 603.97 197.94C603.537 198.937 603.255 199.955 603.125 200.995H619.115ZM634.455 219V190.465C638.875 188.948 643.338 188.19 647.845 188.19C649.232 188.19 650.553 188.255 651.81 188.385C653.067 188.472 654.453 188.688 655.97 189.035L654.995 193.78C653.608 193.39 652.373 193.152 651.29 193.065C650.25 192.935 649.102 192.87 647.845 192.87C645.202 192.87 642.515 193.238 639.785 193.975V219H634.455Z" fill="white"/>
</svg>
